{"title":"20 To 1 - S11E08 - Celebrity Hook-Ups","uid":15313235,"size":377951818,"categoryP":"video","categoryS":"tv_shows","magnet":"?xt=urn:btih:297df9ebecf8cb654ccc33fa7204d8107f653b2f&amp;dn=20+To+1+-+S11E08+-+Celebrity+Hook-Ups&amp;tr=udp%3A%2F%2Ftracker.leechers-paradise.org%3A6969&amp;tr=udp%3A%2F%2Fzer0day.ch%3A1337&amp;tr=udp%3A%2F%2Fopen.demonii.com%3A1337&amp;tr=udp%3A%2F%2Ftracker.coppersurfer.tk%3A6969&amp;tr=udp%3A%2F%2Fexodus.desync.com%3A6969","seeders":4,"leechers":2,"uploader":"Bullrout","files":1,"time":1468599944,"description":"20 To 1 - S11E08 - Celebrity Hook-Ups\r\n\r\nNever has the world been more fascinated with celebrity and when two celebs hook up, That's gossip gold! In this countdown, we check out your favourite celebrity hook-ups, including Music super couple Beyonce and Jay-Z.\r\n\r\nComplete name : 20 To 1 - S11E08 - Celebrity Hook-Ups.mp4\r\nFormat : MPEG-4\r\nFormat profile : Base Media / Version 2\r\nCodec ID : mp42 (mp42/isom/avc1)\r\nFile size : 360 MiB\r\nDuration : 45mn 29s\r\nOverall bit rate mode : Variable\r\nOverall bit rate : 1 108 Kbps\r\n\r\nVideo\r\nID : 2\r\nFormat : AVC\r\nFormat/Info : Advanced Video Codec\r\nFormat profile :   \r\nFormat settings, CABAC : Yes\r\nFormat settings, ReFrames : 3 frames\r\nCodec ID : avc1\r\nCodec ID/Info : Advanced Video Coding\r\nDuration : 45mn 29s\r\nBit rate mode : Variable\r\nBit rate : 976 Kbps\r\nMaximum bit rate : 1 000 Kbps\r\nWidth : 720 pixels\r\nHeight : 404 pixels\r\nDisplay aspect ratio : 16:9\r\nOriginal display aspect ratio : 16:9\r\nFrame rate mode : Constant\r\nFrame rate : 25.000 fps\r\nStandard : PAL\r\nColor space : YUV\r\nChroma subsampling : 4:2:0\r\nBit depth : 8 bits\r\nScan type : Progressive\r\nBits/(Pixel*Frame) : 0.134\r\nStream size : 318 MiB (88%)\r\nWriting library : x264 core 112\r\nColor range : Limited\r\nColor primaries : BT.601 PAL\r\nTransfer characteristics : BT.470 System B, BT.470 System G\r\nMatrix coefficients : BT.601\r\n\r\nAudio\r\nID : 1\r\nFormat : AAC\r\nFormat/Info : Advanced Audio Codec\r\nFormat profile : LC\r\nCodec ID : 40\r\nDuration : 45mn 29s\r\nBit rate mode : Variable\r\nBit rate : 128 Kbps\r\nMaximum bit rate : 576 Kbps\r\nChannel(s) : 2 channels\r\nChannel positions : Front: L R\r\nSampling rate : 48.0 KHz\r\nFrame rate : 46.875 fps (1024 spf)\r\nCompression mode : Lossy\r\nStream size : 41.7 MiB (12%)","torrent":{"xt":"urn:btih:297df9ebecf8cb654ccc33fa7204d8107f653b2f","amp;dn":"20+To+1+-+S11E08+-+Celebrity+Hook-Ups","amp;tr":["udp%3A%2F%2Ftracker.leechers-paradise.org%3A6969","udp%3A%2F%2Fzer0day.ch%3A1337","udp%3A%2F%2Fopen.demonii.com%3A1337","udp%3A%2F%2Ftracker.coppersurfer.tk%3A6969","udp%3A%2F%2Fexodus.desync.com%3A6969"],"infoHash":"297df9ebecf8cb654ccc33fa7204d8107f653b2f","infoHashBuffer":{"type":"Buffer","data":[41,125,249,235,236,248,203,101,76,204,51,250,114,4,216,16,127,101,59,47]},"announce":[],"urlList":[]}}